<mxfile host="app.diagrams.net" modified="2023-01-16T15:47:45.707Z" agent="5.0 (Windows)" version="20.8.5" etag="vbvyaE5zf7YykDN6ack2" type="github">
  <diagram id="EkNbON0QIEz4dbVsxRn2" name="페이지-1">
    <mxGraphModel dx="1687" dy="920" grid="1" gridSize="10" guides="1" tooltips="1" connect="1" arrows="1" fold="1" page="1" pageScale="1" pageWidth="1169" pageHeight="827" math="0" shadow="0">
      <root>
        <mxCell id="0" />
        <mxCell id="1" parent="0" />
        <mxCell id="FlsoNrAaLQkfGbZSRwKs-5" value="" style="rounded=0;whiteSpace=wrap;html=1;" vertex="1" parent="1">
          <mxGeometry x="32.5" y="320" width="610" height="390" as="geometry" />
        </mxCell>
        <mxCell id="FlsoNrAaLQkfGbZSRwKs-2" style="edgeStyle=orthogonalEdgeStyle;rounded=0;orthogonalLoop=1;jettySize=auto;html=1;" edge="1" parent="1" source="FlsoNrAaLQkfGbZSRwKs-1" target="FlsoNrAaLQkfGbZSRwKs-3">
          <mxGeometry relative="1" as="geometry">
            <mxPoint x="295" y="535" as="targetPoint" />
          </mxGeometry>
        </mxCell>
        <mxCell id="FlsoNrAaLQkfGbZSRwKs-1" value="AWS CodeCommit" style="sketch=0;outlineConnect=0;fontColor=#232F3E;gradientColor=none;strokeColor=#ffffff;fillColor=#232F3E;dashed=0;verticalLabelPosition=middle;verticalAlign=bottom;align=center;html=1;whiteSpace=wrap;fontSize=10;fontStyle=1;spacing=3;shape=mxgraph.aws4.productIcon;prIcon=mxgraph.aws4.codecommit;" vertex="1" parent="1">
          <mxGeometry x="125" y="450" width="80" height="110" as="geometry" />
        </mxCell>
        <mxCell id="FlsoNrAaLQkfGbZSRwKs-7" style="edgeStyle=orthogonalEdgeStyle;rounded=0;orthogonalLoop=1;jettySize=auto;html=1;" edge="1" parent="1" source="FlsoNrAaLQkfGbZSRwKs-3" target="FlsoNrAaLQkfGbZSRwKs-6">
          <mxGeometry relative="1" as="geometry">
            <Array as="points">
              <mxPoint x="340" y="395" />
            </Array>
          </mxGeometry>
        </mxCell>
        <mxCell id="FlsoNrAaLQkfGbZSRwKs-50" style="edgeStyle=orthogonalEdgeStyle;rounded=0;orthogonalLoop=1;jettySize=auto;html=1;" edge="1" parent="1" source="FlsoNrAaLQkfGbZSRwKs-3" target="FlsoNrAaLQkfGbZSRwKs-40">
          <mxGeometry relative="1" as="geometry" />
        </mxCell>
        <mxCell id="FlsoNrAaLQkfGbZSRwKs-55" style="edgeStyle=orthogonalEdgeStyle;rounded=0;orthogonalLoop=1;jettySize=auto;html=1;" edge="1" parent="1" source="FlsoNrAaLQkfGbZSRwKs-3" target="FlsoNrAaLQkfGbZSRwKs-42">
          <mxGeometry relative="1" as="geometry">
            <Array as="points">
              <mxPoint x="340" y="640" />
            </Array>
          </mxGeometry>
        </mxCell>
        <mxCell id="FlsoNrAaLQkfGbZSRwKs-3" value="AWS CodeBuild" style="sketch=0;outlineConnect=0;fontColor=#232F3E;gradientColor=none;strokeColor=#ffffff;fillColor=#232F3E;dashed=0;verticalLabelPosition=middle;verticalAlign=bottom;align=center;html=1;whiteSpace=wrap;fontSize=10;fontStyle=1;spacing=3;shape=mxgraph.aws4.productIcon;prIcon=mxgraph.aws4.codebuild;" vertex="1" parent="1">
          <mxGeometry x="295" y="450" width="85" height="110" as="geometry" />
        </mxCell>
        <mxCell id="FlsoNrAaLQkfGbZSRwKs-4" value="AWS CodePipeline" style="sketch=0;outlineConnect=0;fontColor=#232F3E;gradientColor=none;strokeColor=#ffffff;fillColor=#232F3E;dashed=0;verticalLabelPosition=middle;verticalAlign=bottom;align=center;html=1;whiteSpace=wrap;fontSize=10;fontStyle=1;spacing=3;shape=mxgraph.aws4.productIcon;prIcon=mxgraph.aws4.codepipeline;" vertex="1" parent="1">
          <mxGeometry x="35" y="330" width="70" height="100" as="geometry" />
        </mxCell>
        <mxCell id="FlsoNrAaLQkfGbZSRwKs-39" style="edgeStyle=orthogonalEdgeStyle;rounded=0;orthogonalLoop=1;jettySize=auto;html=1;" edge="1" parent="1" source="FlsoNrAaLQkfGbZSRwKs-6" target="FlsoNrAaLQkfGbZSRwKs-26">
          <mxGeometry relative="1" as="geometry" />
        </mxCell>
        <mxCell id="FlsoNrAaLQkfGbZSRwKs-6" value="AWS CloudFormation" style="sketch=0;outlineConnect=0;fontColor=#232F3E;gradientColor=none;strokeColor=#ffffff;fillColor=#232F3E;dashed=0;verticalLabelPosition=middle;verticalAlign=bottom;align=center;html=1;whiteSpace=wrap;fontSize=10;fontStyle=1;spacing=3;shape=mxgraph.aws4.productIcon;prIcon=mxgraph.aws4.cloudformation;" vertex="1" parent="1">
          <mxGeometry x="445" y="330" width="80" height="110" as="geometry" />
        </mxCell>
        <mxCell id="FlsoNrAaLQkfGbZSRwKs-10" value="VPC" style="sketch=0;outlineConnect=0;gradientColor=none;html=1;whiteSpace=wrap;fontSize=12;fontStyle=0;shape=mxgraph.aws4.group;grIcon=mxgraph.aws4.group_vpc;strokeColor=#879196;fillColor=none;verticalAlign=top;align=left;spacingLeft=30;fontColor=#879196;dashed=0;" vertex="1" parent="1">
          <mxGeometry x="780" y="330" width="290" height="270" as="geometry" />
        </mxCell>
        <mxCell id="FlsoNrAaLQkfGbZSRwKs-35" style="edgeStyle=orthogonalEdgeStyle;rounded=0;orthogonalLoop=1;jettySize=auto;html=1;" edge="1" parent="1" source="FlsoNrAaLQkfGbZSRwKs-11" target="FlsoNrAaLQkfGbZSRwKs-33">
          <mxGeometry relative="1" as="geometry" />
        </mxCell>
        <mxCell id="FlsoNrAaLQkfGbZSRwKs-11" value="Amazon S3" style="sketch=0;outlineConnect=0;fontColor=#232F3E;gradientColor=none;strokeColor=#ffffff;fillColor=#232F3E;dashed=0;verticalLabelPosition=middle;verticalAlign=bottom;align=center;html=1;whiteSpace=wrap;fontSize=10;fontStyle=1;spacing=3;shape=mxgraph.aws4.productIcon;prIcon=mxgraph.aws4.s3;" vertex="1" parent="1">
          <mxGeometry x="125" y="200" width="80" height="100" as="geometry" />
        </mxCell>
        <mxCell id="FlsoNrAaLQkfGbZSRwKs-22" value="Private subnet" style="points=[[0,0],[0.25,0],[0.5,0],[0.75,0],[1,0],[1,0.25],[1,0.5],[1,0.75],[1,1],[0.75,1],[0.5,1],[0.25,1],[0,1],[0,0.75],[0,0.5],[0,0.25]];outlineConnect=0;gradientColor=none;html=1;whiteSpace=wrap;fontSize=12;fontStyle=0;container=1;pointerEvents=0;collapsible=0;recursiveResize=0;shape=mxgraph.aws4.group;grIcon=mxgraph.aws4.group_security_group;grStroke=0;strokeColor=#147EBA;fillColor=#E6F2F8;verticalAlign=top;align=left;spacingLeft=30;fontColor=#147EBA;dashed=0;" vertex="1" parent="1">
          <mxGeometry x="830" y="380" width="185" height="200" as="geometry" />
        </mxCell>
        <mxCell id="FlsoNrAaLQkfGbZSRwKs-26" value="Amazon EC2" style="sketch=0;outlineConnect=0;fontColor=#232F3E;gradientColor=none;strokeColor=#ffffff;fillColor=#232F3E;dashed=0;verticalLabelPosition=middle;verticalAlign=bottom;align=center;html=1;whiteSpace=wrap;fontSize=10;fontStyle=1;spacing=3;shape=mxgraph.aws4.productIcon;prIcon=mxgraph.aws4.ec2;" vertex="1" parent="FlsoNrAaLQkfGbZSRwKs-22">
          <mxGeometry x="52.5" y="60" width="80" height="100" as="geometry" />
        </mxCell>
        <mxCell id="FlsoNrAaLQkfGbZSRwKs-27" value="Amazon ECR" style="sketch=0;outlineConnect=0;fontColor=#232F3E;gradientColor=none;strokeColor=#ffffff;fillColor=#232F3E;dashed=0;verticalLabelPosition=middle;verticalAlign=bottom;align=center;html=1;whiteSpace=wrap;fontSize=10;fontStyle=1;spacing=3;shape=mxgraph.aws4.productIcon;prIcon=mxgraph.aws4.ecr;" vertex="1" parent="1">
          <mxGeometry x="680" y="620" width="80" height="100" as="geometry" />
        </mxCell>
        <mxCell id="FlsoNrAaLQkfGbZSRwKs-31" style="edgeStyle=orthogonalEdgeStyle;rounded=0;orthogonalLoop=1;jettySize=auto;html=1;" edge="1" parent="1" source="FlsoNrAaLQkfGbZSRwKs-29" target="FlsoNrAaLQkfGbZSRwKs-26">
          <mxGeometry relative="1" as="geometry" />
        </mxCell>
        <mxCell id="FlsoNrAaLQkfGbZSRwKs-29" value="" style="sketch=0;points=[[0,0,0],[0.25,0,0],[0.5,0,0],[0.75,0,0],[1,0,0],[0,1,0],[0.25,1,0],[0.5,1,0],[0.75,1,0],[1,1,0],[0,0.25,0],[0,0.5,0],[0,0.75,0],[1,0.25,0],[1,0.5,0],[1,0.75,0]];outlineConnect=0;fontColor=#232F3E;gradientColor=#945DF2;gradientDirection=north;fillColor=#5A30B5;strokeColor=#ffffff;dashed=0;verticalLabelPosition=bottom;verticalAlign=top;align=center;html=1;fontSize=12;fontStyle=0;aspect=fixed;shape=mxgraph.aws4.resourceIcon;resIcon=mxgraph.aws4.client_vpn;" vertex="1" parent="1">
          <mxGeometry x="882.5" y="700" width="78" height="78" as="geometry" />
        </mxCell>
        <mxCell id="FlsoNrAaLQkfGbZSRwKs-37" style="edgeStyle=orthogonalEdgeStyle;rounded=0;orthogonalLoop=1;jettySize=auto;html=1;" edge="1" parent="1" source="FlsoNrAaLQkfGbZSRwKs-33" target="FlsoNrAaLQkfGbZSRwKs-36">
          <mxGeometry relative="1" as="geometry" />
        </mxCell>
        <mxCell id="FlsoNrAaLQkfGbZSRwKs-33" value="AWS Lambda" style="sketch=0;outlineConnect=0;fontColor=#232F3E;gradientColor=none;strokeColor=#ffffff;fillColor=#232F3E;dashed=0;verticalLabelPosition=middle;verticalAlign=bottom;align=center;html=1;whiteSpace=wrap;fontSize=10;fontStyle=1;spacing=3;shape=mxgraph.aws4.productIcon;prIcon=mxgraph.aws4.lambda;" vertex="1" parent="1">
          <mxGeometry x="285" y="200" width="80" height="100" as="geometry" />
        </mxCell>
        <mxCell id="FlsoNrAaLQkfGbZSRwKs-36" value="Amazon SNS" style="sketch=0;outlineConnect=0;fontColor=#232F3E;gradientColor=none;strokeColor=#ffffff;fillColor=#232F3E;dashed=0;verticalLabelPosition=middle;verticalAlign=bottom;align=center;html=1;whiteSpace=wrap;fontSize=10;fontStyle=1;spacing=3;shape=mxgraph.aws4.productIcon;prIcon=mxgraph.aws4.sns;" vertex="1" parent="1">
          <mxGeometry x="450" y="200" width="80" height="100" as="geometry" />
        </mxCell>
        <mxCell id="FlsoNrAaLQkfGbZSRwKs-38" value="Amazon Cloudfront" style="sketch=0;outlineConnect=0;fontColor=#232F3E;gradientColor=none;strokeColor=#ffffff;fillColor=#232F3E;dashed=0;verticalLabelPosition=middle;verticalAlign=bottom;align=center;html=1;whiteSpace=wrap;fontSize=10;fontStyle=1;spacing=3;shape=mxgraph.aws4.productIcon;prIcon=mxgraph.aws4.cloudfront;" vertex="1" parent="1">
          <mxGeometry x="125" y="60" width="80" height="110" as="geometry" />
        </mxCell>
        <mxCell id="FlsoNrAaLQkfGbZSRwKs-42" value="Amazon ECS" style="sketch=0;outlineConnect=0;fontColor=#232F3E;gradientColor=none;strokeColor=#ffffff;fillColor=#232F3E;dashed=0;verticalLabelPosition=middle;verticalAlign=bottom;align=center;html=1;whiteSpace=wrap;fontSize=10;fontStyle=1;spacing=3;shape=mxgraph.aws4.productIcon;prIcon=mxgraph.aws4.ecs;" vertex="1" parent="1">
          <mxGeometry x="450" y="590" width="80" height="100" as="geometry" />
        </mxCell>
        <mxCell id="FlsoNrAaLQkfGbZSRwKs-40" value="AWS CodeDeploy" style="sketch=0;outlineConnect=0;fontColor=#232F3E;gradientColor=none;strokeColor=#ffffff;fillColor=#232F3E;dashed=0;verticalLabelPosition=middle;verticalAlign=bottom;align=center;html=1;whiteSpace=wrap;fontSize=10;fontStyle=1;spacing=3;shape=mxgraph.aws4.productIcon;prIcon=mxgraph.aws4.codedeploy;" vertex="1" parent="1">
          <mxGeometry x="470" y="450" width="80" height="110" as="geometry" />
        </mxCell>
      </root>
    </mxGraphModel>
  </diagram>
</mxfile>
